<svg width="261" height="261" viewBox="0 0 261 261" fill="none" xmlns="http://www.w3.org/2000/svg">
<g filter="url(#filter0_d_33_2412)">
<rect x="40.3807" y="36.188" width="180" height="180" rx="32" fill="white"/>
<rect x="40.8807" y="36.688" width="179" height="179" rx="31.5" stroke="white"/>
</g>
<path d="M113.995 78.6429H143.586L112.867 169.711C112.71 170.176 112.482 170.614 112.19 171.009C111.898 171.404 111.547 171.75 111.148 172.036C110.75 172.323 110.31 172.545 109.842 172.695C109.375 172.845 108.887 172.923 108.397 172.923H85.368C84.6204 172.923 83.8829 172.745 83.2178 172.403C82.5521 172.061 81.9774 171.566 81.5414 170.958C81.1052 170.349 80.8199 169.646 80.7089 168.906C80.5976 168.166 80.6651 167.41 80.9039 166.701L109.523 81.8518C109.68 81.3868 109.908 80.9493 110.201 80.5543C110.492 80.1592 110.845 79.813 111.242 79.5267C111.641 79.2404 112.081 79.0179 112.548 78.8679C113.016 78.7179 113.504 78.6404 113.994 78.6404V78.6416L113.995 78.6429Z" fill="url(#paint0_linear_33_2412)"/>
<path d="M168.543 172.923H141.973C141.677 172.923 141.38 172.895 141.088 172.839C140.797 172.784 140.51 172.701 140.234 172.593C139.958 172.484 139.693 172.349 139.441 172.191C139.19 172.033 138.955 171.851 138.738 171.649L108.586 143.49C108.267 143.192 108.045 142.805 107.948 142.379C107.852 141.954 107.886 141.509 108.046 141.103C108.205 140.697 108.484 140.349 108.844 140.103C109.206 139.858 109.632 139.727 110.068 139.727H156.991L168.541 172.924L168.543 172.923Z" fill="#0078D4"/>
<path d="M143.692 78.6429L122.978 139.733L156.823 139.726L168.432 172.923H141.962C141.688 172.92 141.414 172.895 141.144 172.847C140.874 172.798 140.609 172.727 140.352 172.632C139.835 172.443 139.355 172.168 138.931 171.818L118.578 152.822L112.88 169.625C112.732 170.045 112.53 170.444 112.277 170.81C111.771 171.547 111.079 172.137 110.271 172.519C109.869 172.709 109.443 172.845 109.004 172.923H85.3817C84.6266 172.925 83.8816 172.745 83.2103 172.398C82.5389 172.051 81.961 171.547 81.5254 170.929C81.0898 170.311 80.8093 169.598 80.7076 168.849C80.6064 168.1 80.6865 167.337 80.9414 166.625L109.515 81.9156C109.663 81.4418 109.887 80.9955 110.177 80.593C110.466 80.1905 110.818 79.8355 111.218 79.5429C111.618 79.2504 112.063 79.0229 112.535 78.8704C113.006 78.7179 113.5 78.6404 113.996 78.6429H143.693H143.692Z" fill="url(#paint1_linear_33_2412)"/>
<path d="M180.409 166.701C180.648 167.41 180.715 168.166 180.605 168.906C180.494 169.646 180.209 170.349 179.774 170.958C179.338 171.566 178.764 172.061 178.098 172.403C177.433 172.744 176.696 172.923 175.948 172.923H142.968C143.715 172.923 144.453 172.744 145.119 172.403C145.784 172.062 146.359 171.565 146.796 170.958C147.232 170.35 147.517 169.646 147.628 168.906C147.739 168.166 147.672 167.41 147.433 166.701L118.813 81.8494C118.498 80.9147 117.897 80.1024 117.096 79.5268C116.699 79.2405 116.259 79.0192 115.792 78.8692C115.326 78.7192 114.839 78.6429 114.35 78.6429H147.328C147.818 78.6429 148.305 78.7192 148.772 78.8692C149.238 79.0192 149.678 79.2417 150.077 79.5268C150.475 79.813 150.826 80.1593 151.117 80.5531C151.408 80.9468 151.636 81.3844 151.794 81.8494L180.414 166.701H180.409Z" fill="url(#paint2_linear_33_2412)"/>
<defs>
<filter id="filter0_d_33_2412" x="0.38073" y="0.187988" width="260" height="260" filterUnits="userSpaceOnUse" color-interpolation-filters="sRGB">
<feFlood flood-opacity="0" result="BackgroundImageFix"/>
<feColorMatrix in="SourceAlpha" type="matrix" values="0 0 0 0 0 0 0 0 0 0 0 0 0 0 0 0 0 0 127 0" result="hardAlpha"/>
<feOffset dy="4"/>
<feGaussianBlur stdDeviation="20"/>
<feComposite in2="hardAlpha" operator="out"/>
<feColorMatrix type="matrix" values="0 0 0 0 0.0367917 0 0 0 0 0.0348958 0 0 0 0 0.0484375 0 0 0 0.1 0"/>
<feBlend mode="normal" in2="BackgroundImageFix" result="effect1_dropShadow_33_2412"/>
<feBlend mode="normal" in="SourceGraphic" in2="effect1_dropShadow_33_2412" result="shape"/>
</filter>
<linearGradient id="paint0_linear_33_2412" x1="124.794" y1="85.6308" x2="94.0424" y2="176.474" gradientUnits="userSpaceOnUse">
<stop stop-color="#114A8B"/>
<stop offset="1" stop-color="#0669BC"/>
</linearGradient>
<linearGradient id="paint1_linear_33_2412" x1="134.382" y1="127.959" x2="127.269" y2="130.371" gradientUnits="userSpaceOnUse">
<stop stop-opacity="0.3"/>
<stop offset="0.1" stop-opacity="0.2"/>
<stop offset="0.3" stop-opacity="0.1"/>
<stop offset="0.6" stop-opacity="0.1"/>
<stop offset="1" stop-opacity="0"/>
</linearGradient>
<linearGradient id="paint2_linear_33_2412" x1="130.457" y1="82.9807" x2="164.209" y2="172.899" gradientUnits="userSpaceOnUse">
<stop stop-color="#3CCBF4"/>
<stop offset="1" stop-color="#2892DF"/>
</linearGradient>
</defs>
</svg>
