<svg width="261" height="261" viewBox="0 0 261 261" fill="none" xmlns="http://www.w3.org/2000/svg">
<g filter="url(#filter0_d_22_683)">
<rect x="40.724" y="36.2969" width="180" height="180" rx="32" fill="white"/>
<rect x="41.224" y="36.7969" width="179" height="179" rx="31.5" stroke="white"/>
</g>
<path d="M130.068 76.1642L132.736 81.1763C133.336 82.1012 133.986 82.9199 134.752 83.6824C136.996 85.8989 139.088 88.2645 141.014 90.7631C145.535 96.7002 148.585 103.293 150.763 110.424C152.069 114.78 152.779 119.248 152.832 123.767C153.05 137.275 148.419 148.874 139.083 158.514C137.564 160.043 135.923 161.445 134.177 162.708C133.252 162.708 132.814 161.998 132.433 161.345C131.739 160.134 131.277 158.804 131.071 157.424C130.743 155.789 130.527 154.155 130.633 152.468V151.705C130.558 151.543 129.743 76.5485 130.068 76.1642Z" fill="#599636"/>
<path d="M130.068 75.9986C129.958 75.7799 129.849 75.9455 129.74 76.0517C129.793 77.1454 129.411 78.1203 128.815 79.0515C128.158 79.9764 127.29 80.6858 126.418 81.4482C121.575 85.6417 117.762 90.7069 114.709 96.3721C110.647 103.997 108.554 112.168 107.96 120.77C107.688 123.873 108.941 134.822 109.919 137.982C112.588 146.368 117.381 153.396 123.59 159.496C125.115 160.964 126.746 162.327 128.433 163.636C128.924 163.636 128.977 163.198 129.09 162.873C129.305 162.178 129.469 161.468 129.58 160.749L130.674 152.58L130.068 75.9986Z" fill="#6CAC48"/>
<path d="M132.736 166.026C132.846 164.776 133.446 163.739 134.099 162.705C133.442 162.433 132.955 161.892 132.574 161.289C132.245 160.718 131.973 160.116 131.761 159.492C130.999 157.205 130.836 154.805 130.618 152.468V151.052C130.346 151.271 130.29 153.121 130.29 153.396C130.131 155.866 129.803 158.323 129.308 160.749C129.146 161.73 129.036 162.708 128.433 163.58C128.433 163.689 128.433 163.798 128.487 163.961C129.468 166.848 129.736 169.789 129.902 172.785V173.879C129.902 175.185 129.849 174.91 130.933 175.347C131.371 175.51 131.858 175.566 132.296 175.891C132.624 175.891 132.677 175.619 132.677 175.401L132.514 173.604V168.592C132.461 167.717 132.624 166.848 132.733 166.029L132.736 166.026Z" fill="#C2BFBF"/>
<defs>
<filter id="filter0_d_22_683" x="0.723999" y="0.296875" width="260" height="260" filterUnits="userSpaceOnUse" color-interpolation-filters="sRGB">
<feFlood flood-opacity="0" result="BackgroundImageFix"/>
<feColorMatrix in="SourceAlpha" type="matrix" values="0 0 0 0 0 0 0 0 0 0 0 0 0 0 0 0 0 0 127 0" result="hardAlpha"/>
<feOffset dy="4"/>
<feGaussianBlur stdDeviation="20"/>
<feComposite in2="hardAlpha" operator="out"/>
<feColorMatrix type="matrix" values="0 0 0 0 0.0367917 0 0 0 0 0.0348958 0 0 0 0 0.0484375 0 0 0 0.1 0"/>
<feBlend mode="normal" in2="BackgroundImageFix" result="effect1_dropShadow_22_683"/>
<feBlend mode="normal" in="SourceGraphic" in2="effect1_dropShadow_22_683" result="shape"/>
</filter>
</defs>
</svg>
